<svg xmlns="http://www.w3.org/2000/svg" xmlns:xlink="http://www.w3.org/1999/xlink" width="500" zoomAndPan="magnify" viewBox="0 0 375 374.999991" height="500" preserveAspectRatio="xMidYMid meet" version="1.0"><defs><clipPath id="47ef9ffdf5"><path d="M 182 123 L 311.984375 123 L 311.984375 263 L 182 263 Z M 182 123 " clip-rule="nonzero"/></clipPath><clipPath id="0405558563"><path d="M 143 204 L 279 204 L 279 337.132812 L 143 337.132812 Z M 143 204 " clip-rule="nonzero"/></clipPath><clipPath id="3e9760915a"><path d="M 155 266 L 238 266 L 238 337.132812 L 155 337.132812 Z M 155 266 " clip-rule="nonzero"/></clipPath><clipPath id="3a7b8d1f48"><path d="M 123 37.132812 L 142 37.132812 L 142 56 L 123 56 Z M 123 37.132812 " clip-rule="nonzero"/></clipPath></defs><path fill="#f9ed32" d="M 193.710938 78.503906 C 194.242188 78.503906 194.773438 78.476562 195.304688 78.421875 C 195.835938 78.371094 196.363281 78.292969 196.886719 78.191406 C 197.410156 78.085938 197.925781 77.957031 198.4375 77.800781 C 198.949219 77.648438 199.449219 77.46875 199.941406 77.265625 C 200.4375 77.058594 200.917969 76.832031 201.386719 76.582031 C 201.859375 76.332031 202.316406 76.058594 202.757812 75.761719 C 203.203125 75.464844 203.632812 75.148438 204.042969 74.808594 C 204.457031 74.472656 204.851562 74.113281 205.230469 73.738281 C 205.605469 73.363281 205.964844 72.96875 206.300781 72.554688 C 206.640625 72.144531 206.957031 71.714844 207.253906 71.273438 C 207.550781 70.832031 207.824219 70.375 208.078125 69.902344 C 208.328125 69.433594 208.558594 68.953125 208.761719 68.460938 C 208.964844 67.96875 209.144531 67.46875 209.300781 66.957031 C 209.457031 66.449219 209.585938 65.929688 209.691406 65.410156 C 209.792969 64.886719 209.875 64.359375 209.925781 63.828125 C 209.980469 63.300781 210.003906 62.765625 210.003906 62.234375 C 210.003906 61.703125 209.980469 61.171875 209.929688 60.640625 C 209.875 60.109375 209.796875 59.582031 209.695312 59.058594 C 209.589844 58.539062 209.460938 58.019531 209.308594 57.511719 C 209.152344 57 208.972656 56.5 208.769531 56.007812 C 208.566406 55.515625 208.339844 55.03125 208.085938 54.5625 C 207.835938 54.09375 207.5625 53.636719 207.265625 53.191406 C 206.972656 52.75 206.652344 52.320312 206.316406 51.910156 C 205.976562 51.496094 205.621094 51.101562 205.242188 50.726562 C 204.867188 50.347656 204.472656 49.988281 204.058594 49.652344 C 203.648438 49.3125 203.21875 48.996094 202.777344 48.699219 C 202.332031 48.402344 201.878906 48.128906 201.40625 47.875 C 200.9375 47.625 200.453125 47.398438 199.960938 47.191406 C 199.46875 46.988281 198.96875 46.808594 198.457031 46.652344 C 197.949219 46.496094 197.429688 46.367188 196.90625 46.261719 C 196.382812 46.15625 195.859375 46.078125 195.328125 46.027344 C 194.796875 45.972656 194.261719 45.945312 193.730469 45.945312 C 193.195312 45.945312 192.664062 45.972656 192.132812 46.023438 C 191.601562 46.074219 191.074219 46.152344 190.550781 46.253906 C 190.027344 46.359375 189.511719 46.488281 189 46.640625 C 188.488281 46.792969 187.988281 46.972656 187.496094 47.175781 C 187 47.378906 186.519531 47.605469 186.046875 47.855469 C 185.578125 48.105469 185.121094 48.378906 184.675781 48.675781 C 184.230469 48.972656 183.804688 49.289062 183.390625 49.625 C 182.976562 49.960938 182.582031 50.320312 182.203125 50.695312 C 181.828125 51.070312 181.46875 51.464844 181.128906 51.875 C 180.789062 52.289062 180.472656 52.714844 180.175781 53.15625 C 179.878906 53.601562 179.601562 54.054688 179.351562 54.527344 C 179.097656 54.996094 178.871094 55.476562 178.664062 55.96875 C 178.460938 56.460938 178.277344 56.960938 178.125 57.472656 C 177.96875 57.980469 177.835938 58.496094 177.730469 59.019531 C 177.628906 59.542969 177.546875 60.066406 177.496094 60.597656 C 177.441406 61.128906 177.414062 61.660156 177.414062 62.191406 C 177.414062 62.726562 177.4375 63.257812 177.492188 63.789062 C 177.542969 64.320312 177.621094 64.847656 177.726562 65.371094 C 177.828125 65.894531 177.960938 66.410156 178.113281 66.921875 C 178.269531 67.433594 178.449219 67.933594 178.652344 68.425781 C 178.855469 68.917969 179.085938 69.402344 179.335938 69.871094 C 179.585938 70.34375 179.863281 70.800781 180.15625 71.242188 C 180.453125 71.6875 180.773438 72.117188 181.109375 72.527344 C 181.449219 72.941406 181.808594 73.335938 182.183594 73.714844 C 182.5625 74.089844 182.957031 74.449219 183.367188 74.789062 C 183.78125 75.128906 184.210938 75.445312 184.652344 75.742188 C 185.097656 76.039062 185.554688 76.3125 186.023438 76.566406 C 186.496094 76.816406 186.976562 77.046875 187.46875 77.25 C 187.964844 77.457031 188.464844 77.636719 188.976562 77.792969 C 189.488281 77.949219 190.003906 78.078125 190.527344 78.183594 C 191.050781 78.289062 191.578125 78.367188 192.109375 78.421875 C 192.640625 78.472656 193.175781 78.5 193.710938 78.503906 Z M 193.710938 78.503906 " fill-opacity="0.78" fill-rule="evenodd"/><path fill="#662d91" d="M 272.648438 91.050781 C 277.078125 96.179688 280.738281 101.808594 283.632812 107.929688 C 286.527344 114.054688 288.546875 120.453125 289.699219 127.128906 C 293.003906 146.421875 287.964844 164.289062 291.496094 176.296875 C 292.324219 178.988281 293.433594 181.558594 294.820312 184.011719 C 293.996094 184.492188 293.15625 184.949219 292.304688 185.378906 C 291.453125 185.8125 290.589844 186.21875 289.714844 186.601562 C 288.839844 186.984375 287.953125 187.339844 287.058594 187.671875 C 286.164062 188.003906 285.257812 188.3125 284.34375 188.589844 C 283.433594 188.871094 282.511719 189.125 281.582031 189.351562 C 280.65625 189.578125 279.722656 189.78125 278.78125 189.953125 C 277.84375 190.128906 276.898438 190.273438 275.953125 190.394531 C 275.003906 190.511719 274.054688 190.605469 273.101562 190.671875 C 272.148438 190.738281 271.195312 190.773438 270.238281 190.785156 C 269.285156 190.796875 268.328125 190.777344 267.375 190.734375 C 266.421875 190.691406 265.46875 190.621094 264.519531 190.519531 C 263.566406 190.421875 262.621094 190.296875 261.679688 190.144531 C 260.734375 189.992188 259.796875 189.8125 258.863281 189.605469 C 257.933594 189.398438 257.007812 189.164062 256.085938 188.90625 C 255.167969 188.644531 254.257812 188.359375 253.355469 188.046875 C 252.453125 187.734375 251.558594 187.398438 250.675781 187.035156 C 249.792969 186.671875 248.917969 186.285156 248.058594 185.871094 C 247.195312 185.457031 246.347656 185.019531 245.511719 184.558594 C 244.675781 184.097656 243.855469 183.613281 243.046875 183.105469 C 242.238281 182.59375 241.445312 182.0625 240.667969 181.507812 C 239.890625 180.957031 239.128906 180.378906 238.382812 179.78125 C 237.640625 179.183594 236.910156 178.566406 236.203125 177.925781 C 235.492188 177.285156 234.804688 176.628906 234.132812 175.949219 C 233.460938 175.269531 232.808594 174.570312 232.179688 173.855469 C 231.546875 173.140625 230.9375 172.40625 230.347656 171.65625 C 229.757812 170.902344 229.191406 170.136719 228.648438 169.351562 C 228.101562 168.570312 227.582031 167.769531 227.082031 166.957031 C 226.582031 166.144531 226.105469 165.316406 225.65625 164.476562 C 225.203125 163.632812 224.777344 162.78125 224.375 161.914062 C 223.972656 161.050781 223.59375 160.175781 223.242188 159.289062 C 222.886719 158.402344 222.5625 157.503906 222.261719 156.597656 C 221.960938 155.691406 221.6875 154.78125 221.4375 153.859375 C 221.1875 152.9375 220.96875 152.007812 220.773438 151.074219 C 220.578125 150.140625 220.410156 149.203125 220.265625 148.257812 C 220.125 147.316406 220.011719 146.367188 219.925781 145.417969 C 219.839844 144.46875 219.777344 143.515625 219.746094 142.5625 C 219.714844 141.609375 219.710938 140.652344 219.730469 139.699219 C 219.753906 138.746094 219.804688 137.792969 219.882812 136.84375 C 219.957031 135.890625 220.0625 134.941406 220.195312 134 C 220.328125 133.054688 220.484375 132.113281 220.671875 131.175781 C 220.855469 130.242188 221.070312 129.3125 221.308594 128.386719 C 221.546875 127.464844 221.8125 126.546875 222.105469 125.636719 C 222.394531 124.730469 222.714844 123.828125 223.058594 122.941406 C 223.402344 122.050781 223.769531 121.167969 224.164062 120.300781 C 224.558594 119.429688 224.976562 118.574219 225.417969 117.726562 C 225.863281 116.882812 226.328125 116.050781 226.820312 115.230469 C 227.308594 114.414062 227.824219 113.609375 228.359375 112.820312 C 228.898438 112.03125 229.457031 111.257812 230.039062 110.5 C 230.621094 109.742188 231.222656 109.003906 231.847656 108.28125 C 232.472656 107.558594 233.113281 106.855469 233.78125 106.167969 C 234.445312 105.484375 235.128906 104.816406 235.828125 104.171875 C 236.53125 103.523438 237.253906 102.898438 237.992188 102.292969 C 238.730469 101.6875 239.484375 101.105469 240.257812 100.542969 C 241.027344 99.980469 241.816406 99.441406 242.621094 98.925781 C 243.421875 98.40625 244.238281 97.914062 245.070312 97.445312 C 245.902344 96.972656 246.746094 96.527344 247.605469 96.105469 C 248.460938 95.683594 249.328125 95.289062 250.207031 94.917969 C 251.089844 94.542969 251.976562 94.199219 252.878906 93.875 C 253.777344 93.554688 254.683594 93.261719 255.601562 92.992188 C 256.519531 92.722656 257.441406 92.480469 258.371094 92.265625 C 259.304688 92.046875 260.238281 91.859375 261.179688 91.695312 C 262.121094 91.535156 263.066406 91.398438 264.015625 91.292969 C 264.964844 91.183594 265.917969 91.101562 266.871094 91.046875 C 267.824219 90.996094 268.777344 90.96875 269.734375 90.96875 C 270.675781 90.96875 271.667969 91 272.648438 91.050781 Z M 272.648438 91.050781 " fill-opacity="0.78" fill-rule="evenodd"/><g clip-path="url(#47ef9ffdf5)"><path fill="#92278f" d="M 290.671875 135.617188 C 291.714844 151.601562 288.488281 166.074219 291.496094 176.335938 C 296.648438 193.867188 319.488281 209.75 308.816406 218.769531 C 305.441406 221.476562 299.628906 221.652344 296.222656 224.304688 C 290.796875 228.535156 294.507812 233.105469 294.988281 236.40625 C 295.21875 237.972656 293.796875 240.488281 289.101562 243.546875 C 292.648438 246.160156 292.324219 248.371094 291.058594 250.40625 C 289.332031 251.589844 287.554688 252.691406 285.726562 253.714844 C 283.898438 254.738281 282.03125 255.675781 280.117188 256.527344 C 278.207031 257.382812 276.261719 258.148438 274.28125 258.824219 C 272.296875 259.503906 270.292969 260.089844 268.257812 260.585938 C 266.222656 261.082031 264.171875 261.484375 262.101562 261.796875 C 260.027344 262.109375 257.949219 262.324219 255.859375 262.449219 C 253.769531 262.570312 251.675781 262.597656 249.582031 262.535156 C 247.492188 262.46875 245.40625 262.308594 243.328125 262.054688 C 241.25 261.800781 239.183594 261.453125 237.136719 261.011719 C 235.089844 260.570312 233.070312 260.039062 231.070312 259.414062 C 229.070312 258.792969 227.105469 258.082031 225.167969 257.28125 C 223.234375 256.480469 221.339844 255.59375 219.488281 254.621094 C 217.632812 253.648438 215.824219 252.59375 214.066406 251.460938 C 212.308594 250.324219 210.605469 249.113281 208.957031 247.824219 C 207.304688 246.535156 205.71875 245.175781 204.191406 243.742188 C 202.667969 242.3125 201.207031 240.8125 199.816406 239.25 C 198.425781 237.683594 197.109375 236.0625 195.867188 234.378906 C 194.625 232.695312 193.460938 230.960938 192.371094 229.171875 C 191.285156 227.382812 190.28125 225.550781 189.363281 223.671875 C 188.441406 221.792969 187.609375 219.875 186.863281 217.921875 C 186.113281 215.96875 185.457031 213.984375 184.890625 211.972656 C 184.324219 209.957031 183.847656 207.921875 183.464844 205.867188 C 183.082031 203.8125 182.789062 201.742188 182.59375 199.660156 C 182.398438 197.578125 182.296875 195.488281 182.289062 193.398438 C 182.285156 191.304688 182.371094 189.21875 182.550781 187.136719 C 182.734375 185.050781 183.011719 182.980469 183.378906 180.921875 C 183.75 178.863281 184.210938 176.824219 184.765625 174.808594 C 185.316406 172.789062 185.960938 170.800781 186.695312 168.84375 C 187.429688 166.882812 188.25 164.960938 189.160156 163.078125 C 190.066406 161.191406 191.058594 159.351562 192.132812 157.558594 C 193.207031 155.761719 194.359375 154.019531 195.589844 152.328125 C 196.824219 150.636719 198.128906 149.003906 199.507812 147.429688 C 200.886719 145.855469 202.335938 144.347656 203.851562 142.90625 C 205.371094 141.464844 206.949219 140.09375 208.589844 138.792969 C 210.226562 137.492188 211.925781 136.269531 213.675781 135.125 C 215.425781 133.976562 217.226562 132.910156 219.074219 131.925781 C 220.921875 130.941406 222.808594 130.042969 224.738281 129.230469 C 226.667969 128.414062 228.628906 127.691406 230.625 127.054688 C 232.617188 126.417969 234.636719 125.871094 236.679688 125.417969 C 238.726562 124.964844 240.785156 124.601562 242.863281 124.332031 C 244.9375 124.066406 247.023438 123.890625 249.117188 123.8125 C 251.207031 123.730469 253.300781 123.746094 255.390625 123.855469 C 257.480469 123.964844 259.5625 124.167969 261.636719 124.464844 C 263.710938 124.761719 265.765625 125.152344 267.800781 125.632812 C 269.839844 126.117188 271.851562 126.691406 273.835938 127.355469 C 275.820312 128.019531 277.773438 128.769531 279.691406 129.609375 C 281.609375 130.453125 283.484375 131.375 285.316406 132.386719 C 287.152344 133.394531 288.9375 134.488281 290.671875 135.65625 Z M 290.671875 135.617188 " fill-opacity="0.78" fill-rule="evenodd"/></g><g clip-path="url(#0405558563)"><path fill="#007fc6" d="M 275.796875 288.976562 C 249.402344 299.710938 214.070312 263.710938 209.316406 337.132812 C 192.15625 325.878906 173.972656 316.632812 154.761719 309.402344 C 153.96875 308.238281 153.214844 307.050781 152.5 305.84375 C 151.78125 304.632812 151.101562 303.402344 150.460938 302.148438 C 149.824219 300.898438 149.222656 299.628906 148.660156 298.335938 C 148.101562 297.046875 147.582031 295.742188 147.101562 294.421875 C 146.625 293.097656 146.1875 291.761719 145.792969 290.414062 C 145.398438 289.0625 145.042969 287.703125 144.734375 286.332031 C 144.425781 284.960938 144.15625 283.582031 143.933594 282.191406 C 143.710938 280.804688 143.53125 279.410156 143.394531 278.011719 C 143.257812 276.613281 143.164062 275.210938 143.117188 273.804688 C 143.070312 272.398438 143.0625 270.996094 143.105469 269.589844 C 143.144531 268.183594 143.226562 266.78125 143.355469 265.382812 C 143.480469 263.980469 143.652344 262.585938 143.867188 261.195312 C 144.082031 259.808594 144.339844 258.425781 144.640625 257.054688 C 144.941406 255.679688 145.285156 254.316406 145.671875 252.964844 C 146.058594 251.613281 146.484375 250.273438 146.957031 248.949219 C 147.425781 247.625 147.9375 246.316406 148.488281 245.023438 C 149.042969 243.730469 149.632812 242.453125 150.265625 241.199219 C 150.898438 239.941406 151.570312 238.707031 152.277344 237.492188 C 152.988281 236.277344 153.734375 235.085938 154.519531 233.917969 C 155.300781 232.75 156.121094 231.609375 156.976562 230.492188 C 157.832031 229.375 158.722656 228.289062 159.644531 227.226562 C 160.570312 226.167969 161.523438 225.136719 162.511719 224.132812 C 163.5 223.132812 164.519531 222.164062 165.566406 221.226562 C 166.617188 220.289062 167.695312 219.382812 168.800781 218.515625 C 169.90625 217.644531 171.035156 216.808594 172.195312 216.007812 C 173.351562 215.210938 174.53125 214.445312 175.738281 213.722656 C 176.945312 212.996094 178.171875 212.308594 179.417969 211.660156 C 180.667969 211.011719 181.933594 210.398438 183.222656 209.832031 C 184.507812 209.261719 185.8125 208.730469 187.132812 208.242188 C 188.449219 207.753906 189.785156 207.308594 191.132812 206.902344 C 192.480469 206.496094 193.839844 206.132812 195.210938 205.8125 C 196.578125 205.492188 197.960938 205.214844 199.347656 204.980469 C 200.734375 204.746094 202.128906 204.558594 203.527344 204.410156 C 204.929688 204.261719 206.332031 204.160156 207.738281 204.101562 C 209.144531 204.039062 210.550781 204.023438 211.957031 204.054688 C 213.363281 204.082031 214.769531 204.152344 216.171875 204.269531 C 217.574219 204.386719 218.972656 204.546875 220.363281 204.75 C 221.757812 204.953125 223.140625 205.199219 224.519531 205.488281 C 225.898438 205.78125 227.261719 206.113281 228.621094 206.488281 C 229.976562 206.863281 231.320312 207.28125 232.648438 207.738281 C 233.980469 208.199219 235.292969 208.699219 236.59375 209.242188 C 237.890625 209.78125 239.171875 210.363281 240.4375 210.984375 C 241.699219 211.605469 242.941406 212.265625 244.160156 212.964844 C 245.382812 213.664062 246.582031 214.402344 247.753906 215.175781 C 248.929688 215.949219 250.082031 216.757812 251.203125 217.605469 C 252.328125 218.449219 253.425781 219.332031 254.496094 220.246094 C 255.5625 221.160156 256.605469 222.105469 257.613281 223.085938 C 258.625 224.0625 259.601562 225.074219 260.550781 226.113281 C 261.496094 227.152344 262.410156 228.222656 263.289062 229.320312 C 264.167969 230.417969 265.015625 231.539062 265.824219 232.691406 C 266.632812 233.839844 267.40625 235.015625 268.140625 236.214844 C 268.878906 237.410156 269.574219 238.632812 270.234375 239.875 C 270.894531 241.117188 271.515625 242.378906 272.09375 243.65625 C 272.675781 244.9375 273.214844 246.234375 273.714844 247.550781 C 274.214844 248.863281 274.671875 250.195312 275.089844 251.535156 C 275.503906 252.878906 275.878906 254.234375 276.210938 255.601562 C 276.542969 256.96875 276.828125 258.34375 277.074219 259.726562 C 277.320312 261.109375 277.523438 262.5 277.679688 263.898438 C 277.839844 265.296875 277.953125 266.695312 278.023438 268.101562 C 278.09375 269.503906 278.121094 270.910156 278.101562 272.316406 C 278.085938 273.722656 278.023438 275.125 277.917969 276.527344 C 277.8125 277.929688 277.664062 279.328125 277.472656 280.71875 C 277.277344 282.113281 277.042969 283.496094 276.761719 284.875 C 276.484375 286.253906 276.160156 287.621094 275.796875 288.976562 Z M 275.796875 288.976562 " fill-opacity="0.78" fill-rule="evenodd"/></g><g clip-path="url(#3e9760915a)"><path fill="#01a6e6" d="M 237.046875 289.355469 C 223.101562 289.9375 211.855469 297.957031 209.316406 337.132812 C 192.25 325.945312 174.175781 316.738281 155.085938 309.515625 C 155.113281 308.328125 155.191406 307.140625 155.316406 305.960938 C 155.441406 304.777344 155.613281 303.601562 155.835938 302.433594 C 156.058594 301.265625 156.324219 300.109375 156.640625 298.964844 C 156.957031 297.816406 157.320312 296.683594 157.726562 295.570312 C 158.136719 294.453125 158.589844 293.355469 159.085938 292.273438 C 159.585938 291.195312 160.125 290.136719 160.710938 289.101562 C 161.296875 288.066406 161.921875 287.054688 162.589844 286.070312 C 163.253906 285.085938 163.960938 284.128906 164.707031 283.203125 C 165.453125 282.277344 166.234375 281.382812 167.050781 280.519531 C 167.871094 279.65625 168.722656 278.828125 169.609375 278.03125 C 170.496094 277.238281 171.410156 276.484375 172.359375 275.765625 C 173.308594 275.042969 174.285156 274.367188 175.285156 273.726562 C 176.289062 273.085938 177.316406 272.488281 178.371094 271.933594 C 179.421875 271.378906 180.496094 270.867188 181.589844 270.398438 C 182.683594 269.929688 183.796875 269.507812 184.921875 269.128906 C 186.050781 268.753906 187.195312 268.421875 188.351562 268.136719 C 189.503906 267.851562 190.671875 267.617188 191.847656 267.425781 C 193.019531 267.238281 194.203125 267.097656 195.386719 267.003906 C 196.574219 266.910156 197.761719 266.867188 198.953125 266.871094 C 200.144531 266.875 201.332031 266.925781 202.519531 267.027344 C 203.703125 267.128906 204.882812 267.277344 206.058594 267.472656 C 207.230469 267.671875 208.394531 267.914062 209.546875 268.207031 C 210.703125 268.5 211.84375 268.839844 212.96875 269.222656 C 214.09375 269.609375 215.203125 270.039062 216.292969 270.511719 C 217.382812 270.988281 218.453125 271.507812 219.503906 272.070312 C 220.550781 272.632812 221.574219 273.238281 222.574219 273.882812 C 223.574219 274.527344 224.542969 275.214844 225.488281 275.941406 C 226.429688 276.664062 227.34375 277.425781 228.222656 278.226562 C 229.105469 279.027344 229.949219 279.859375 230.761719 280.730469 C 231.574219 281.597656 232.351562 282.5 233.089844 283.429688 C 233.828125 284.363281 234.53125 285.324219 235.191406 286.3125 C 235.851562 287.300781 236.46875 288.316406 237.046875 289.355469 Z M 237.046875 289.355469 " fill-opacity="0.78" fill-rule="evenodd"/></g><path fill="#2063b2" d="M 300.820312 222.058594 C 299.164062 222.539062 297.632812 223.273438 296.222656 224.261719 C 290.796875 228.492188 294.507812 233.066406 294.988281 236.363281 C 295.21875 237.929688 293.796875 240.445312 289.101562 243.507812 C 294.527344 247.503906 290.878906 250.566406 288.695312 253.507812 C 278.546875 260.816406 292.667969 276.65625 275.921875 288.9375 C 259.019531 295.890625 238.46875 283.621094 224.585938 293.039062 C 224.367188 291.773438 224.1875 290.5 224.046875 289.222656 C 223.90625 287.945312 223.804688 286.664062 223.742188 285.378906 C 223.679688 284.09375 223.660156 282.8125 223.675781 281.523438 C 223.695312 280.238281 223.753906 278.957031 223.851562 277.675781 C 223.949219 276.390625 224.085938 275.113281 224.265625 273.839844 C 224.441406 272.566406 224.660156 271.300781 224.914062 270.039062 C 225.171875 268.78125 225.464844 267.53125 225.800781 266.289062 C 226.132812 265.046875 226.503906 263.816406 226.914062 262.597656 C 227.324219 261.378906 227.773438 260.175781 228.257812 258.984375 C 228.742188 257.792969 229.265625 256.617188 229.820312 255.457031 C 230.378906 254.300781 230.972656 253.160156 231.601562 252.039062 C 232.230469 250.917969 232.894531 249.816406 233.589844 248.734375 C 234.285156 247.652344 235.015625 246.59375 235.78125 245.558594 C 236.542969 244.523438 237.335938 243.511719 238.164062 242.527344 C 238.988281 241.539062 239.84375 240.582031 240.726562 239.648438 C 241.613281 238.714844 242.527344 237.808594 243.46875 236.933594 C 244.410156 236.054688 245.378906 235.207031 246.371094 234.390625 C 247.367188 233.574219 248.382812 232.789062 249.425781 232.035156 C 250.46875 231.28125 251.535156 230.5625 252.621094 229.875 C 253.710938 229.1875 254.816406 228.53125 255.945312 227.914062 C 257.074219 227.292969 258.21875 226.710938 259.382812 226.164062 C 260.546875 225.613281 261.726562 225.101562 262.925781 224.628906 C 264.121094 224.152344 265.328125 223.714844 266.554688 223.316406 C 267.777344 222.917969 269.011719 222.554688 270.257812 222.230469 C 271.503906 221.90625 272.757812 221.621094 274.019531 221.378906 C 275.285156 221.132812 276.554688 220.925781 277.828125 220.757812 C 279.105469 220.589844 280.386719 220.464844 281.671875 220.375 C 282.953125 220.289062 284.238281 220.238281 285.527344 220.230469 C 286.8125 220.222656 288.101562 220.253906 289.386719 220.328125 C 290.671875 220.398438 291.953125 220.511719 293.230469 220.660156 C 294.507812 220.8125 295.78125 221.003906 297.046875 221.234375 C 298.3125 221.460938 299.570312 221.730469 300.820312 222.039062 Z M 300.820312 222.058594 " fill-opacity="0.78" fill-rule="evenodd"/><path fill="#12bcbc" d="M 104.535156 222.84375 C 105.324219 222.84375 106.113281 222.804688 106.902344 222.726562 C 107.6875 222.652344 108.46875 222.535156 109.246094 222.382812 C 110.019531 222.226562 110.785156 222.035156 111.542969 221.808594 C 112.300781 221.578125 113.042969 221.3125 113.773438 221.011719 C 114.503906 220.710938 115.21875 220.371094 115.914062 220 C 116.613281 219.628906 117.289062 219.222656 117.949219 218.785156 C 118.605469 218.34375 119.238281 217.875 119.851562 217.375 C 120.460938 216.875 121.046875 216.34375 121.605469 215.785156 C 122.167969 215.226562 122.695312 214.644531 123.199219 214.035156 C 123.699219 213.421875 124.171875 212.789062 124.609375 212.132812 C 125.050781 211.476562 125.457031 210.800781 125.828125 210.105469 C 126.203125 209.40625 126.539062 208.695312 126.84375 207.964844 C 127.144531 207.234375 127.410156 206.492188 127.640625 205.738281 C 127.871094 204.980469 128.0625 204.214844 128.214844 203.441406 C 128.371094 202.667969 128.488281 201.886719 128.566406 201.101562 C 128.640625 200.316406 128.679688 199.527344 128.679688 198.738281 C 128.679688 197.949219 128.644531 197.160156 128.566406 196.375 C 128.488281 195.585938 128.371094 194.808594 128.21875 194.03125 C 128.0625 193.257812 127.871094 192.492188 127.644531 191.738281 C 127.414062 190.980469 127.148438 190.238281 126.84375 189.507812 C 126.542969 188.78125 126.203125 188.066406 125.832031 187.371094 C 125.460938 186.671875 125.054688 185.996094 124.613281 185.339844 C 124.175781 184.683594 123.703125 184.050781 123.203125 183.441406 C 122.703125 182.828125 122.171875 182.246094 121.613281 181.6875 C 121.054688 181.128906 120.46875 180.597656 119.855469 180.097656 C 119.246094 179.597656 118.609375 179.125 117.953125 178.6875 C 117.296875 178.25 116.617188 177.84375 115.921875 177.472656 C 115.222656 177.097656 114.511719 176.761719 113.78125 176.460938 C 113.050781 176.15625 112.304688 175.890625 111.550781 175.664062 C 110.792969 175.433594 110.027344 175.242188 109.25 175.085938 C 108.476562 174.933594 107.695312 174.816406 106.90625 174.742188 C 106.121094 174.664062 105.332031 174.625 104.542969 174.625 C 103.75 174.625 102.960938 174.664062 102.175781 174.742188 C 101.390625 174.820312 100.609375 174.933594 99.832031 175.089844 C 99.058594 175.242188 98.289062 175.433594 97.535156 175.664062 C 96.777344 175.894531 96.035156 176.160156 95.304688 176.460938 C 94.574219 176.765625 93.859375 177.101562 93.164062 177.472656 C 92.464844 177.847656 91.789062 178.253906 91.132812 178.691406 C 90.472656 179.128906 89.839844 179.601562 89.230469 180.101562 C 88.617188 180.601562 88.03125 181.132812 87.472656 181.691406 C 86.914062 182.25 86.382812 182.835938 85.882812 183.445312 C 85.382812 184.054688 84.910156 184.6875 84.472656 185.347656 C 84.035156 186.003906 83.628906 186.679688 83.253906 187.375 C 82.882812 188.074219 82.546875 188.785156 82.242188 189.515625 C 81.941406 190.246094 81.675781 190.988281 81.445312 191.742188 C 81.214844 192.5 81.023438 193.265625 80.871094 194.039062 C 80.71875 194.816406 80.601562 195.59375 80.523438 196.378906 C 80.449219 197.167969 80.410156 197.953125 80.410156 198.746094 C 80.410156 199.53125 80.453125 200.320312 80.53125 201.105469 C 80.609375 201.890625 80.726562 202.667969 80.882812 203.441406 C 81.035156 204.214844 81.230469 204.980469 81.460938 205.734375 C 81.691406 206.488281 81.957031 207.230469 82.257812 207.957031 C 82.5625 208.6875 82.902344 209.398438 83.273438 210.09375 C 83.644531 210.789062 84.050781 211.464844 84.492188 212.121094 C 84.929688 212.777344 85.402344 213.410156 85.902344 214.019531 C 86.402344 214.628906 86.933594 215.210938 87.492188 215.769531 C 88.050781 216.328125 88.632812 216.855469 89.242188 217.355469 C 89.855469 217.855469 90.488281 218.328125 91.144531 218.765625 C 91.800781 219.203125 92.476562 219.609375 93.171875 219.980469 C 93.867188 220.355469 94.582031 220.691406 95.308594 220.996094 C 96.039062 221.296875 96.78125 221.5625 97.539062 221.792969 C 98.292969 222.023438 99.058594 222.214844 99.832031 222.371094 C 100.605469 222.527344 101.386719 222.644531 102.171875 222.722656 C 102.957031 222.800781 103.746094 222.839844 104.535156 222.84375 Z M 104.535156 222.84375 " fill-opacity="0.78" fill-rule="evenodd"/><path fill="#00b9f1" d="M 155.085938 256.402344 C 155.808594 256.402344 156.527344 256.371094 157.246094 256.300781 C 157.964844 256.234375 158.675781 256.128906 159.382812 255.992188 C 160.09375 255.851562 160.792969 255.679688 161.480469 255.472656 C 162.171875 255.265625 162.851562 255.023438 163.519531 254.75 C 164.1875 254.476562 164.839844 254.167969 165.476562 253.832031 C 166.113281 253.492188 166.730469 253.125 167.332031 252.726562 C 167.933594 252.328125 168.511719 251.898438 169.070312 251.445312 C 169.632812 250.988281 170.167969 250.507812 170.675781 249.996094 C 171.1875 249.488281 171.675781 248.957031 172.132812 248.402344 C 172.589844 247.84375 173.023438 247.269531 173.425781 246.667969 C 173.828125 246.070312 174.199219 245.453125 174.539062 244.820312 C 174.882812 244.183594 175.191406 243.535156 175.46875 242.871094 C 175.746094 242.207031 175.988281 241.527344 176.199219 240.839844 C 176.410156 240.148438 176.589844 239.453125 176.730469 238.746094 C 176.871094 238.039062 176.980469 237.328125 177.050781 236.609375 C 177.125 235.894531 177.160156 235.175781 177.160156 234.453125 C 177.164062 233.734375 177.128906 233.015625 177.058594 232.296875 C 176.992188 231.578125 176.886719 230.867188 176.746094 230.160156 C 176.605469 229.453125 176.433594 228.753906 176.226562 228.066406 C 176.015625 227.375 175.773438 226.695312 175.5 226.03125 C 175.226562 225.363281 174.917969 224.714844 174.578125 224.078125 C 174.242188 223.441406 173.871094 222.824219 173.472656 222.222656 C 173.070312 221.625 172.644531 221.046875 172.1875 220.488281 C 171.730469 219.929688 171.246094 219.394531 170.738281 218.886719 C 170.226562 218.375 169.695312 217.890625 169.136719 217.433594 C 168.578125 216.976562 168 216.546875 167.402344 216.144531 C 166.804688 215.742188 166.183594 215.371094 165.550781 215.03125 C 164.914062 214.691406 164.261719 214.382812 163.597656 214.105469 C 162.929688 213.828125 162.253906 213.585938 161.5625 213.375 C 160.871094 213.167969 160.171875 212.992188 159.464844 212.851562 C 158.757812 212.707031 158.046875 212.601562 157.328125 212.53125 C 156.609375 212.460938 155.890625 212.421875 155.167969 212.421875 C 154.449219 212.421875 153.726562 212.457031 153.011719 212.527344 C 152.292969 212.597656 151.578125 212.703125 150.871094 212.839844 C 150.164062 212.980469 149.464844 213.15625 148.773438 213.363281 C 148.082031 213.574219 147.40625 213.816406 146.738281 214.089844 C 146.070312 214.367188 145.421875 214.671875 144.785156 215.011719 C 144.148438 215.351562 143.527344 215.722656 142.929688 216.121094 C 142.328125 216.519531 141.75 216.949219 141.191406 217.40625 C 140.632812 217.863281 140.101562 218.347656 139.589844 218.855469 C 139.078125 219.363281 138.59375 219.898438 138.136719 220.453125 C 137.679688 221.011719 137.25 221.589844 136.847656 222.1875 C 136.449219 222.789062 136.078125 223.40625 135.738281 224.039062 C 135.394531 224.675781 135.089844 225.328125 134.8125 225.992188 C 134.535156 226.65625 134.292969 227.335938 134.082031 228.023438 C 133.875 228.714844 133.699219 229.414062 133.558594 230.121094 C 133.417969 230.824219 133.3125 231.539062 133.242188 232.253906 C 133.167969 232.972656 133.132812 233.691406 133.132812 234.410156 C 133.136719 235.128906 133.171875 235.847656 133.242188 236.5625 C 133.316406 237.277344 133.421875 237.988281 133.5625 238.691406 C 133.703125 239.394531 133.878906 240.089844 134.089844 240.777344 C 134.296875 241.464844 134.539062 242.140625 134.816406 242.804688 C 135.089844 243.46875 135.398438 244.117188 135.738281 244.753906 C 136.074219 245.386719 136.445312 246 136.84375 246.597656 C 137.242188 247.195312 137.671875 247.773438 138.125 248.328125 C 138.582031 248.886719 139.0625 249.417969 139.570312 249.925781 C 140.078125 250.433594 140.613281 250.917969 141.167969 251.375 C 141.722656 251.832031 142.296875 252.261719 142.894531 252.660156 C 143.492188 253.0625 144.109375 253.433594 144.742188 253.773438 C 145.375 254.113281 146.023438 254.421875 146.6875 254.699219 C 147.351562 254.976562 148.027344 255.21875 148.714844 255.429688 C 149.402344 255.640625 150.097656 255.816406 150.800781 255.960938 C 151.507812 256.105469 152.21875 256.210938 152.933594 256.285156 C 153.648438 256.359375 154.367188 256.398438 155.085938 256.402344 Z M 155.085938 256.402344 " fill-opacity="0.78" fill-rule="evenodd"/><path fill="#8dc63f" d="M 101.066406 164.171875 C 101.617188 164.171875 102.171875 164.144531 102.722656 164.089844 C 103.273438 164.039062 103.820312 163.957031 104.363281 163.847656 C 104.90625 163.742188 105.445312 163.605469 105.976562 163.445312 C 106.503906 163.285156 107.027344 163.097656 107.539062 162.886719 C 108.050781 162.675781 108.550781 162.4375 109.039062 162.179688 C 109.527344 161.917969 110 161.632812 110.460938 161.324219 C 110.921875 161.019531 111.367188 160.6875 111.796875 160.335938 C 112.222656 159.984375 112.632812 159.613281 113.023438 159.222656 C 113.417969 158.832031 113.789062 158.421875 114.140625 157.996094 C 114.492188 157.566406 114.820312 157.125 115.128906 156.664062 C 115.4375 156.203125 115.71875 155.730469 115.980469 155.242188 C 116.242188 154.753906 116.480469 154.253906 116.691406 153.742188 C 116.902344 153.230469 117.089844 152.710938 117.25 152.179688 C 117.410156 151.652344 117.546875 151.113281 117.652344 150.570312 C 117.761719 150.027344 117.84375 149.484375 117.894531 148.933594 C 117.949219 148.382812 117.976562 147.828125 117.976562 147.277344 C 117.976562 146.722656 117.949219 146.171875 117.894531 145.621094 C 117.839844 145.070312 117.761719 144.523438 117.652344 143.980469 C 117.542969 143.4375 117.410156 142.902344 117.246094 142.371094 C 117.085938 141.839844 116.902344 141.320312 116.6875 140.808594 C 116.476562 140.296875 116.238281 139.800781 115.976562 139.3125 C 115.71875 138.824219 115.433594 138.347656 115.125 137.890625 C 114.816406 137.429688 114.488281 136.984375 114.136719 136.558594 C 113.785156 136.128906 113.410156 135.71875 113.019531 135.328125 C 112.628906 134.9375 112.21875 134.566406 111.789062 134.214844 C 111.363281 133.867188 110.917969 133.535156 110.457031 133.230469 C 109.996094 132.921875 109.519531 132.636719 109.03125 132.378906 C 108.542969 132.117188 108.042969 131.878906 107.53125 131.667969 C 107.019531 131.457031 106.5 131.269531 105.96875 131.109375 C 105.4375 130.949219 104.902344 130.816406 104.359375 130.707031 C 103.8125 130.601562 103.265625 130.519531 102.714844 130.464844 C 102.164062 130.410156 101.613281 130.386719 101.058594 130.386719 C 100.503906 130.386719 99.949219 130.414062 99.398438 130.46875 C 98.847656 130.523438 98.300781 130.601562 97.757812 130.710938 C 97.214844 130.820312 96.675781 130.953125 96.148438 131.113281 C 95.617188 131.277344 95.097656 131.460938 94.585938 131.675781 C 94.074219 131.886719 93.574219 132.121094 93.085938 132.382812 C 92.597656 132.644531 92.121094 132.929688 91.660156 133.238281 C 91.199219 133.542969 90.757812 133.875 90.328125 134.226562 C 89.898438 134.578125 89.492188 134.949219 89.097656 135.339844 C 88.707031 135.730469 88.335938 136.140625 87.984375 136.570312 C 87.632812 136.996094 87.304688 137.441406 86.996094 137.902344 C 86.6875 138.359375 86.40625 138.835938 86.144531 139.324219 C 85.882812 139.8125 85.648438 140.3125 85.433594 140.824219 C 85.222656 141.335938 85.039062 141.855469 84.878906 142.382812 C 84.714844 142.914062 84.582031 143.449219 84.472656 143.992188 C 84.367188 144.535156 84.285156 145.082031 84.230469 145.632812 C 84.179688 146.183594 84.152344 146.734375 84.152344 147.289062 C 84.152344 147.84375 84.179688 148.394531 84.234375 148.945312 C 84.289062 149.496094 84.371094 150.039062 84.480469 150.582031 C 84.589844 151.125 84.726562 151.660156 84.886719 152.1875 C 85.046875 152.71875 85.234375 153.238281 85.449219 153.75 C 85.660156 154.257812 85.898438 154.757812 86.15625 155.246094 C 86.417969 155.734375 86.703125 156.207031 87.011719 156.664062 C 87.320312 157.125 87.648438 157.566406 88 157.996094 C 88.351562 158.421875 88.722656 158.832031 89.113281 159.222656 C 89.507812 159.613281 89.917969 159.984375 90.34375 160.335938 C 90.773438 160.6875 91.214844 161.015625 91.675781 161.320312 C 92.136719 161.628906 92.609375 161.914062 93.097656 162.171875 C 93.585938 162.433594 94.085938 162.671875 94.597656 162.882812 C 95.109375 163.09375 95.628906 163.28125 96.160156 163.441406 C 96.6875 163.601562 97.226562 163.738281 97.769531 163.84375 C 98.308594 163.953125 98.855469 164.035156 99.40625 164.089844 C 99.957031 164.144531 100.511719 164.171875 101.066406 164.171875 Z M 101.066406 164.171875 " fill-opacity="0.78" fill-rule="evenodd"/><path fill="#ffd900" d="M 92.628906 105.304688 C 92.628906 106.265625 92.535156 107.214844 92.347656 108.160156 C 92.160156 109.101562 91.882812 110.015625 91.515625 110.902344 C 91.144531 111.789062 90.695312 112.632812 90.160156 113.433594 C 89.625 114.230469 89.019531 114.96875 88.339844 115.648438 C 87.660156 116.328125 86.921875 116.933594 86.121094 117.46875 C 85.320312 118 84.476562 118.453125 83.589844 118.820312 C 82.699219 119.1875 81.785156 119.464844 80.839844 119.652344 C 79.898438 119.839844 78.945312 119.933594 77.984375 119.933594 C 77.023438 119.933594 76.070312 119.839844 75.128906 119.652344 C 74.183594 119.464844 73.269531 119.1875 72.378906 118.820312 C 71.492188 118.453125 70.648438 118 69.847656 117.46875 C 69.046875 116.933594 68.308594 116.328125 67.628906 115.648438 C 66.949219 114.96875 66.34375 114.230469 65.808594 113.433594 C 65.273438 112.632812 64.824219 111.789062 64.453125 110.902344 C 64.085938 110.015625 63.808594 109.101562 63.621094 108.160156 C 63.433594 107.214844 63.339844 106.265625 63.339844 105.304688 C 63.339844 104.34375 63.433594 103.394531 63.621094 102.449219 C 63.808594 101.507812 64.085938 100.59375 64.453125 99.707031 C 64.824219 98.820312 65.273438 97.976562 65.808594 97.179688 C 66.34375 96.378906 66.949219 95.640625 67.628906 94.960938 C 68.308594 94.28125 69.046875 93.675781 69.847656 93.140625 C 70.648438 92.609375 71.492188 92.15625 72.378906 91.789062 C 73.269531 91.421875 74.183594 91.144531 75.128906 90.957031 C 76.070312 90.769531 77.023438 90.675781 77.984375 90.675781 C 78.945312 90.675781 79.898438 90.769531 80.839844 90.957031 C 81.785156 91.144531 82.699219 91.421875 83.589844 91.789062 C 84.476562 92.15625 85.320312 92.609375 86.121094 93.140625 C 86.921875 93.675781 87.660156 94.28125 88.339844 94.960938 C 89.019531 95.640625 89.625 96.378906 90.160156 97.179688 C 90.695312 97.976562 91.144531 98.820312 91.515625 99.707031 C 91.882812 100.59375 92.160156 101.507812 92.347656 102.449219 C 92.535156 103.394531 92.628906 104.34375 92.628906 105.304688 Z M 92.628906 105.304688 " fill-opacity="0.78" fill-rule="nonzero"/><path fill="#009444" d="M 108.925781 78.503906 C 109.824219 78.503906 110.710938 78.414062 111.59375 78.242188 C 112.472656 78.066406 113.328125 77.808594 114.160156 77.464844 C 114.988281 77.125 115.777344 76.703125 116.523438 76.207031 C 117.269531 75.707031 117.960938 75.140625 118.597656 74.507812 C 119.234375 73.875 119.800781 73.183594 120.300781 72.4375 C 120.796875 71.695312 121.21875 70.90625 121.5625 70.078125 C 121.910156 69.25 122.167969 68.394531 122.34375 67.515625 C 122.519531 66.636719 122.609375 65.75 122.609375 64.851562 C 122.609375 63.953125 122.519531 63.066406 122.347656 62.1875 C 122.171875 61.308594 121.914062 60.453125 121.570312 59.625 C 121.226562 58.796875 120.804688 58.007812 120.308594 57.261719 C 119.808594 56.515625 119.242188 55.824219 118.605469 55.191406 C 117.972656 54.558594 117.28125 53.992188 116.535156 53.492188 C 115.789062 52.992188 115 52.574219 114.171875 52.230469 C 113.34375 51.886719 112.488281 51.625 111.605469 51.449219 C 110.726562 51.277344 109.835938 51.1875 108.9375 51.1875 C 108.042969 51.1875 107.152344 51.273438 106.269531 51.449219 C 105.390625 51.625 104.535156 51.882812 103.707031 52.226562 C 102.875 52.570312 102.089844 52.988281 101.339844 53.488281 C 100.59375 53.984375 99.902344 54.550781 99.269531 55.1875 C 98.632812 55.820312 98.066406 56.511719 97.566406 57.257812 C 97.070312 58 96.648438 58.789062 96.304688 59.617188 C 95.960938 60.445312 95.699219 61.300781 95.527344 62.179688 C 95.351562 63.058594 95.261719 63.949219 95.261719 64.84375 C 95.265625 65.742188 95.351562 66.628906 95.527344 67.507812 C 95.703125 68.386719 95.964844 69.238281 96.308594 70.066406 C 96.652344 70.894531 97.074219 71.679688 97.570312 72.425781 C 98.070312 73.167969 98.636719 73.859375 99.269531 74.492188 C 99.902344 75.125 100.59375 75.691406 101.339844 76.191406 C 102.085938 76.6875 102.871094 77.109375 103.699219 77.453125 C 104.527344 77.796875 105.382812 78.058594 106.261719 78.234375 C 107.140625 78.410156 108.027344 78.5 108.925781 78.503906 Z M 108.925781 78.503906 " fill-opacity="0.78" fill-rule="evenodd"/><path fill="#56ba48" d="M 113.566406 112.539062 C 114.160156 112.539062 114.746094 112.484375 115.328125 112.367188 C 115.910156 112.25 116.472656 112.082031 117.023438 111.855469 C 117.570312 111.628906 118.089844 111.347656 118.582031 111.019531 C 119.078125 110.691406 119.53125 110.316406 119.953125 109.898438 C 120.371094 109.480469 120.746094 109.023438 121.074219 108.53125 C 121.40625 108.039062 121.683594 107.519531 121.910156 106.972656 C 122.136719 106.425781 122.308594 105.859375 122.425781 105.28125 C 122.539062 104.699219 122.597656 104.113281 122.597656 103.519531 C 122.597656 102.925781 122.539062 102.339844 122.425781 101.757812 C 122.308594 101.179688 122.136719 100.613281 121.910156 100.066406 C 121.683594 99.519531 121.40625 99 121.074219 98.507812 C 120.746094 98.015625 120.371094 97.558594 119.953125 97.140625 C 119.53125 96.722656 119.078125 96.347656 118.582031 96.019531 C 118.089844 95.691406 117.570312 95.410156 117.023438 95.183594 C 116.472656 94.957031 115.910156 94.785156 115.328125 94.671875 C 114.746094 94.554688 114.160156 94.5 113.566406 94.5 C 112.972656 94.5 112.386719 94.554688 111.804688 94.671875 C 111.222656 94.789062 110.65625 94.957031 110.109375 95.183594 C 109.5625 95.410156 109.042969 95.691406 108.546875 96.019531 C 108.054688 96.347656 107.597656 96.722656 107.179688 97.140625 C 106.761719 97.558594 106.386719 98.015625 106.058594 98.507812 C 105.726562 99 105.449219 99.519531 105.222656 100.066406 C 104.996094 100.613281 104.824219 101.179688 104.707031 101.757812 C 104.59375 102.339844 104.535156 102.925781 104.535156 103.519531 C 104.535156 104.113281 104.59375 104.699219 104.710938 105.277344 C 104.828125 105.859375 105 106.421875 105.226562 106.96875 C 105.457031 107.515625 105.734375 108.035156 106.0625 108.527344 C 106.394531 109.019531 106.765625 109.472656 107.1875 109.890625 C 107.605469 110.3125 108.0625 110.683594 108.554688 111.015625 C 109.046875 111.34375 109.566406 111.621094 110.113281 111.847656 C 110.660156 112.074219 111.226562 112.246094 111.804688 112.363281 C 112.386719 112.480469 112.972656 112.539062 113.566406 112.539062 Z M 113.566406 112.539062 " fill-opacity="0.78" fill-rule="evenodd"/><g clip-path="url(#3a7b8d1f48)"><path fill="#fbad17" d="M 132.402344 55.175781 C 132.996094 55.175781 133.582031 55.117188 134.164062 55.003906 C 134.746094 54.886719 135.3125 54.714844 135.859375 54.488281 C 136.40625 54.261719 136.925781 53.984375 137.421875 53.65625 C 137.914062 53.328125 138.371094 52.953125 138.789062 52.535156 C 139.207031 52.113281 139.582031 51.660156 139.910156 51.167969 C 140.242188 50.675781 140.519531 50.15625 140.746094 49.605469 C 140.972656 49.058594 141.144531 48.496094 141.261719 47.914062 C 141.375 47.332031 141.433594 46.746094 141.433594 46.15625 C 141.433594 45.5625 141.375 44.976562 141.261719 44.394531 C 141.144531 43.8125 140.972656 43.25 140.746094 42.703125 C 140.519531 42.15625 140.242188 41.636719 139.910156 41.144531 C 139.582031 40.652344 139.207031 40.195312 138.789062 39.777344 C 138.371094 39.355469 137.914062 38.984375 137.421875 38.652344 C 136.925781 38.324219 136.40625 38.046875 135.859375 37.820312 C 135.3125 37.59375 134.746094 37.421875 134.164062 37.308594 C 133.582031 37.191406 132.996094 37.132812 132.402344 37.132812 C 131.808594 37.132812 131.222656 37.191406 130.640625 37.308594 C 130.058594 37.421875 129.496094 37.59375 128.945312 37.820312 C 128.398438 38.046875 127.878906 38.324219 127.386719 38.652344 C 126.890625 38.984375 126.4375 39.355469 126.015625 39.777344 C 125.597656 40.195312 125.222656 40.652344 124.894531 41.144531 C 124.5625 41.636719 124.285156 42.15625 124.058594 42.703125 C 123.832031 43.25 123.660156 43.8125 123.542969 44.394531 C 123.429688 44.976562 123.371094 45.5625 123.371094 46.15625 C 123.371094 46.746094 123.429688 47.332031 123.546875 47.914062 C 123.664062 48.492188 123.835938 49.058594 124.0625 49.605469 C 124.292969 50.152344 124.570312 50.671875 124.898438 51.160156 C 125.230469 51.652344 125.601562 52.109375 126.023438 52.527344 C 126.441406 52.945312 126.898438 53.320312 127.390625 53.648438 C 127.882812 53.980469 128.402344 54.257812 128.949219 54.484375 C 129.496094 54.710938 130.0625 54.882812 130.640625 55 C 131.222656 55.117188 131.808594 55.175781 132.402344 55.175781 Z M 132.402344 55.175781 " fill-opacity="0.78" fill-rule="evenodd"/></g><path fill="#f15c22" d="M 76.929688 75.285156 C 77.378906 75.285156 77.820312 75.238281 78.261719 75.148438 C 78.699219 75.058594 79.125 74.929688 79.539062 74.753906 C 79.953125 74.582031 80.347656 74.371094 80.71875 74.121094 C 81.089844 73.871094 81.433594 73.585938 81.75 73.269531 C 82.066406 72.949219 82.347656 72.605469 82.59375 72.230469 C 82.84375 71.859375 83.050781 71.464844 83.222656 71.050781 C 83.390625 70.632812 83.519531 70.207031 83.605469 69.769531 C 83.691406 69.328125 83.734375 68.882812 83.734375 68.4375 C 83.730469 67.988281 83.6875 67.546875 83.597656 67.105469 C 83.507812 66.667969 83.378906 66.242188 83.207031 65.828125 C 83.035156 65.414062 82.820312 65.023438 82.570312 64.648438 C 82.320312 64.277344 82.039062 63.933594 81.71875 63.617188 C 81.402344 63.300781 81.058594 63.019531 80.683594 62.773438 C 80.308594 62.523438 79.914062 62.316406 79.5 62.144531 C 79.085938 61.972656 78.660156 61.84375 78.21875 61.757812 C 77.78125 61.671875 77.335938 61.628906 76.886719 61.628906 C 76.4375 61.628906 75.996094 61.675781 75.554688 61.761719 C 75.113281 61.851562 74.6875 61.980469 74.273438 62.152344 C 73.859375 62.324219 73.464844 62.535156 73.09375 62.785156 C 72.722656 63.03125 72.375 63.316406 72.058594 63.632812 C 71.742188 63.949219 71.460938 64.292969 71.210938 64.667969 C 70.960938 65.039062 70.75 65.433594 70.582031 65.847656 C 70.410156 66.261719 70.28125 66.6875 70.191406 67.125 C 70.105469 67.566406 70.0625 68.007812 70.0625 68.457031 C 70.0625 68.90625 70.109375 69.351562 70.195312 69.792969 C 70.285156 70.234375 70.417969 70.660156 70.589844 71.074219 C 70.761719 71.488281 70.976562 71.882812 71.226562 72.257812 C 71.476562 72.628906 71.761719 72.972656 72.082031 73.292969 C 72.398438 73.609375 72.746094 73.890625 73.121094 74.140625 C 73.496094 74.386719 73.890625 74.597656 74.304688 74.769531 C 74.722656 74.941406 75.152344 75.070312 75.59375 75.15625 C 76.03125 75.242188 76.480469 75.285156 76.929688 75.285156 Z M 76.929688 75.285156 " fill-opacity="0.78" fill-rule="evenodd"/><path fill="#fbad17" d="M 239.429688 144.949219 C 239.429688 146.820312 239.339844 148.683594 239.15625 150.542969 C 238.972656 152.402344 238.699219 154.25 238.332031 156.082031 C 237.96875 157.914062 237.515625 159.726562 236.972656 161.515625 C 236.425781 163.304688 235.796875 165.0625 235.082031 166.789062 C 234.367188 168.515625 233.566406 170.203125 232.683594 171.847656 C 231.804688 173.496094 230.84375 175.097656 229.804688 176.652344 C 228.765625 178.207031 227.652344 179.707031 226.464844 181.148438 C 225.277344 182.59375 224.023438 183.976562 222.699219 185.300781 C 221.375 186.621094 219.992188 187.875 218.546875 189.058594 C 217.097656 190.246094 215.597656 191.359375 214.042969 192.394531 C 212.488281 193.433594 210.882812 194.394531 209.234375 195.273438 C 207.582031 196.15625 205.894531 196.953125 204.164062 197.667969 C 202.4375 198.382812 200.679688 199.011719 198.886719 199.554688 C 197.097656 200.097656 195.285156 200.550781 193.449219 200.917969 C 191.613281 201.28125 189.765625 201.554688 187.90625 201.738281 C 186.042969 201.921875 184.175781 202.011719 182.304688 202.011719 C 180.433594 202.011719 178.566406 201.921875 176.707031 201.738281 C 174.84375 201.554688 172.996094 201.28125 171.160156 200.917969 C 169.324219 200.550781 167.511719 200.097656 165.722656 199.554688 C 163.933594 199.011719 162.171875 198.382812 160.445312 197.667969 C 158.714844 196.953125 157.027344 196.15625 155.375 195.273438 C 153.726562 194.394531 152.125 193.433594 150.566406 192.394531 C 149.011719 191.359375 147.511719 190.246094 146.066406 189.058594 C 144.617188 187.875 143.234375 186.621094 141.910156 185.300781 C 140.589844 183.976562 139.332031 182.59375 138.144531 181.148438 C 136.960938 179.707031 135.847656 178.207031 134.808594 176.652344 C 133.765625 175.097656 132.808594 173.496094 131.925781 171.847656 C 131.042969 170.203125 130.242188 168.515625 129.527344 166.789062 C 128.8125 165.0625 128.183594 163.304688 127.640625 161.515625 C 127.097656 159.726562 126.640625 157.914062 126.277344 156.082031 C 125.914062 154.25 125.636719 152.402344 125.453125 150.542969 C 125.269531 148.683594 125.179688 146.820312 125.179688 144.949219 C 125.179688 143.082031 125.269531 141.21875 125.453125 139.359375 C 125.636719 137.496094 125.914062 135.652344 126.277344 133.820312 C 126.640625 131.984375 127.097656 130.175781 127.640625 128.386719 C 128.183594 126.597656 128.8125 124.839844 129.527344 123.113281 C 130.242188 121.386719 131.042969 119.699219 131.925781 118.050781 C 132.808594 116.402344 133.765625 114.800781 134.808594 113.25 C 135.847656 111.695312 136.960938 110.195312 138.144531 108.75 C 139.332031 107.304688 140.589844 105.921875 141.910156 104.601562 C 143.234375 103.28125 144.617188 102.027344 146.066406 100.839844 C 147.511719 99.65625 149.011719 98.542969 150.566406 97.503906 C 152.125 96.46875 153.726562 95.507812 155.375 94.625 C 157.027344 93.746094 158.714844 92.949219 160.445312 92.230469 C 162.171875 91.515625 163.933594 90.886719 165.722656 90.347656 C 167.511719 89.804688 169.324219 89.351562 171.160156 88.984375 C 172.996094 88.621094 174.84375 88.347656 176.707031 88.164062 C 178.566406 87.980469 180.433594 87.890625 182.304688 87.890625 C 184.175781 87.890625 186.042969 87.980469 187.90625 88.164062 C 189.765625 88.347656 191.613281 88.621094 193.449219 88.984375 C 195.285156 89.351562 197.097656 89.804688 198.886719 90.347656 C 200.679688 90.886719 202.4375 91.515625 204.164062 92.230469 C 205.894531 92.949219 207.582031 93.746094 209.234375 94.625 C 210.882812 95.507812 212.488281 96.46875 214.042969 97.503906 C 215.597656 98.542969 217.097656 99.65625 218.546875 100.839844 C 219.992188 102.027344 221.375 103.28125 222.699219 104.601562 C 224.023438 105.921875 225.277344 107.304688 226.464844 108.75 C 227.652344 110.195312 228.765625 111.695312 229.804688 113.25 C 230.84375 114.800781 231.804688 116.402344 232.683594 118.050781 C 233.566406 119.699219 234.367188 121.386719 235.082031 123.113281 C 235.796875 124.839844 236.425781 126.597656 236.972656 128.386719 C 237.515625 130.175781 237.96875 131.984375 238.332031 133.820312 C 238.699219 135.652344 238.972656 137.496094 239.15625 139.359375 C 239.339844 141.21875 239.429688 143.082031 239.429688 144.949219 Z M 239.429688 144.949219 " fill-opacity="0.78" fill-rule="nonzero"/><path fill="#ec008b" d="M 213.863281 58.578125 C 241.238281 64.21875 264.171875 77.917969 277.699219 97.621094 C 277.582031 98.453125 277.441406 99.285156 277.273438 100.109375 C 277.105469 100.933594 276.914062 101.753906 276.695312 102.570312 C 276.476562 103.382812 276.234375 104.1875 275.964844 104.988281 C 275.695312 105.785156 275.402344 106.574219 275.085938 107.355469 C 274.769531 108.136719 274.425781 108.90625 274.0625 109.664062 C 273.695312 110.421875 273.308594 111.171875 272.898438 111.90625 C 272.484375 112.640625 272.050781 113.363281 271.59375 114.070312 C 271.140625 114.78125 270.660156 115.472656 270.160156 116.152344 C 269.664062 116.832031 269.144531 117.492188 268.601562 118.140625 C 268.0625 118.785156 267.503906 119.414062 266.921875 120.027344 C 266.34375 120.640625 265.746094 121.234375 265.128906 121.808594 C 264.511719 122.382812 263.878906 122.9375 263.230469 123.472656 C 262.578125 124.011719 261.910156 124.523438 261.230469 125.019531 C 260.546875 125.515625 259.847656 125.988281 259.136719 126.4375 C 258.425781 126.890625 257.699219 127.320312 256.960938 127.726562 C 256.222656 128.132812 255.472656 128.515625 254.710938 128.875 C 253.949219 129.234375 253.175781 129.570312 252.390625 129.882812 C 251.609375 130.195312 250.816406 130.484375 250.015625 130.746094 C 249.214844 131.007812 248.40625 131.246094 247.589844 131.460938 C 246.773438 131.671875 245.953125 131.863281 245.125 132.023438 C 244.296875 132.1875 243.464844 132.324219 242.628906 132.433594 C 241.792969 132.542969 240.957031 132.628906 240.113281 132.6875 C 239.273438 132.746094 238.429688 132.78125 237.589844 132.785156 C 236.746094 132.792969 235.902344 132.773438 235.058594 132.730469 C 234.21875 132.683594 233.378906 132.613281 232.539062 132.515625 C 231.703125 132.417969 230.871094 132.292969 230.039062 132.144531 C 229.210938 131.996094 228.386719 131.820312 227.566406 131.621094 C 226.746094 131.421875 225.933594 131.195312 225.128906 130.945312 C 224.324219 130.695312 223.527344 130.421875 222.738281 130.121094 C 221.953125 129.824219 221.171875 129.5 220.40625 129.152344 C 219.636719 128.804688 218.878906 128.433594 218.136719 128.039062 C 217.390625 127.644531 216.660156 127.226562 215.9375 126.785156 C 215.21875 126.347656 214.515625 125.886719 213.824219 125.402344 C 213.132812 124.917969 212.460938 124.414062 211.800781 123.890625 C 211.140625 123.363281 210.5 122.820312 209.875 122.253906 C 209.246094 121.6875 208.640625 121.105469 208.050781 120.503906 C 207.460938 119.898438 206.890625 119.28125 206.339844 118.640625 C 205.789062 118.003906 205.261719 117.351562 204.75 116.679688 C 204.238281 116.007812 203.75 115.324219 203.28125 114.621094 C 202.816406 113.921875 202.371094 113.207031 201.945312 112.476562 C 201.523438 111.75 201.121094 111.007812 200.746094 110.253906 C 200.367188 109.5 200.015625 108.738281 199.683594 107.960938 C 199.355469 107.1875 199.050781 106.402344 198.769531 105.609375 C 198.488281 104.816406 198.230469 104.011719 198 103.203125 C 197.765625 102.394531 197.5625 101.578125 197.378906 100.753906 C 197.199219 99.929688 197.042969 99.105469 196.914062 98.269531 C 196.785156 97.4375 196.679688 96.605469 196.601562 95.765625 C 196.527344 94.925781 196.472656 94.085938 196.449219 93.242188 C 196.421875 92.402344 196.421875 91.558594 196.449219 90.71875 C 196.476562 89.875 196.527344 89.035156 196.609375 88.199219 C 196.6875 87.359375 196.789062 86.523438 196.921875 85.691406 C 197.050781 84.859375 197.207031 84.03125 197.390625 83.210938 C 197.570312 82.386719 197.777344 81.570312 198.011719 80.761719 C 198.242188 79.953125 198.5 79.148438 198.785156 78.355469 C 199.066406 77.5625 199.371094 76.777344 199.703125 76.003906 C 200.035156 75.230469 200.386719 74.464844 200.765625 73.710938 C 201.144531 72.960938 201.546875 72.21875 201.96875 71.492188 C 202.394531 70.761719 202.839844 70.046875 203.308594 69.347656 C 203.777344 68.648438 204.265625 67.960938 204.777344 67.292969 C 205.289062 66.621094 205.820312 65.96875 206.371094 65.332031 C 206.921875 64.695312 207.492188 64.074219 208.082031 63.472656 C 208.671875 62.871094 209.28125 62.289062 209.90625 61.722656 C 210.535156 61.160156 211.175781 60.613281 211.835938 60.089844 C 212.496094 59.566406 213.171875 59.0625 213.863281 58.578125 Z M 213.863281 58.578125 " fill-opacity="0.78" fill-rule="evenodd"/><path fill="#56ba48" d="M 163.070312 119.945312 C 164.191406 119.945312 165.308594 119.890625 166.425781 119.78125 C 167.539062 119.671875 168.648438 119.507812 169.746094 119.289062 C 170.847656 119.070312 171.929688 118.800781 173.003906 118.476562 C 174.078125 118.148438 175.128906 117.773438 176.164062 117.347656 C 177.199219 116.917969 178.214844 116.441406 179.203125 115.914062 C 180.191406 115.386719 181.148438 114.8125 182.082031 114.1875 C 183.015625 113.566406 183.914062 112.902344 184.78125 112.191406 C 185.644531 111.480469 186.476562 110.730469 187.269531 109.941406 C 188.058594 109.148438 188.8125 108.320312 189.523438 107.457031 C 190.234375 106.589844 190.902344 105.691406 191.523438 104.761719 C 192.148438 103.832031 192.722656 102.875 193.25 101.886719 C 193.78125 100.898438 194.257812 99.886719 194.6875 98.855469 C 195.117188 97.820312 195.492188 96.769531 195.820312 95.695312 C 196.144531 94.625 196.417969 93.542969 196.636719 92.445312 C 196.855469 91.347656 197.019531 90.238281 197.128906 89.125 C 197.238281 88.011719 197.292969 86.894531 197.292969 85.777344 C 197.292969 84.65625 197.238281 83.539062 197.128906 82.425781 C 197.019531 81.3125 196.855469 80.207031 196.636719 79.109375 C 196.421875 78.011719 196.148438 76.925781 195.824219 75.855469 C 195.5 74.785156 195.121094 73.730469 194.691406 72.695312 C 194.265625 71.664062 193.785156 70.652344 193.257812 69.664062 C 192.730469 68.675781 192.152344 67.71875 191.53125 66.789062 C 190.910156 65.855469 190.242188 64.957031 189.53125 64.09375 C 188.820312 63.226562 188.070312 62.398438 187.277344 61.609375 C 186.484375 60.816406 185.65625 60.066406 184.789062 59.355469 C 183.925781 58.644531 183.023438 57.980469 182.09375 57.355469 C 181.160156 56.734375 180.203125 56.160156 179.214844 55.632812 C 178.226562 55.105469 177.214844 54.625 176.179688 54.199219 C 175.144531 53.769531 174.089844 53.394531 173.015625 53.066406 C 171.945312 52.742188 170.859375 52.472656 169.761719 52.253906 C 168.660156 52.035156 167.554688 51.871094 166.4375 51.757812 C 165.324219 51.648438 164.207031 51.59375 163.085938 51.59375 C 161.964844 51.59375 160.847656 51.648438 159.730469 51.757812 C 158.617188 51.867188 157.507812 52.03125 156.410156 52.25 C 155.3125 52.46875 154.226562 52.742188 153.152344 53.066406 C 152.082031 53.390625 151.027344 53.765625 149.992188 54.195312 C 148.957031 54.625 147.945312 55.101562 146.957031 55.628906 C 145.96875 56.15625 145.007812 56.730469 144.078125 57.351562 C 143.144531 57.976562 142.246094 58.640625 141.378906 59.351562 C 140.511719 60.0625 139.683594 60.8125 138.890625 61.601562 C 138.097656 62.394531 137.347656 63.222656 136.636719 64.089844 C 135.925781 64.953125 135.257812 65.851562 134.636719 66.78125 C 134.011719 67.710938 133.4375 68.671875 132.910156 69.660156 C 132.382812 70.644531 131.902344 71.65625 131.472656 72.691406 C 131.046875 73.722656 130.667969 74.777344 130.34375 75.847656 C 130.015625 76.917969 129.746094 78.003906 129.527344 79.101562 C 129.308594 80.199219 129.144531 81.304688 129.035156 82.417969 C 128.925781 83.535156 128.871094 84.648438 128.871094 85.769531 C 128.871094 86.886719 128.929688 88.003906 129.039062 89.117188 C 129.152344 90.230469 129.316406 91.335938 129.535156 92.429688 C 129.757812 93.527344 130.03125 94.609375 130.355469 95.679688 C 130.683594 96.75 131.058594 97.800781 131.488281 98.835938 C 131.917969 99.867188 132.398438 100.878906 132.925781 101.863281 C 133.453125 102.851562 134.03125 103.808594 134.652344 104.738281 C 135.273438 105.667969 135.941406 106.566406 136.652344 107.429688 C 137.363281 108.292969 138.113281 109.121094 138.90625 109.914062 C 139.695312 110.703125 140.523438 111.453125 141.390625 112.164062 C 142.253906 112.875 143.152344 113.539062 144.082031 114.160156 C 145.015625 114.785156 145.972656 115.359375 146.960938 115.886719 C 147.949219 116.414062 148.957031 116.894531 149.992188 117.324219 C 151.027344 117.75 152.078125 118.128906 153.148438 118.457031 C 154.21875 118.78125 155.304688 119.054688 156.402344 119.273438 C 157.5 119.496094 158.605469 119.660156 159.722656 119.773438 C 160.835938 119.882812 161.953125 119.941406 163.070312 119.945312 Z M 163.070312 119.945312 " fill-opacity="0.78" fill-rule="evenodd"/></svg>